{"title":"Horsemen[2009]DvDRip[Eng]-Uvall","uid":5117866,"size":1264434694,"categoryP":"video","categoryS":"movies","magnet":"?xt=urn:btih:e4b3d7fa5e36341213d00d6b2f443604248520a7&amp;dn=Horsemen%5B2009%5DDvDRip%5BEng%5D-Uvall&amp;tr=udp%3A%2F%2Ftracker.openbittorrent.com%3A80&amp;tr=udp%3A%2F%2Fopen.demonii.com%3A1337&amp;tr=udp%3A%2F%2Ftracker.coppersurfer.tk%3A6969&amp;tr=udp%3A%2F%2Fexodus.desync.com%3A6969","seeders":0,"leechers":1,"uploader":"Uvall","files":5,"time":1255163792,"description":"~~~~~~~~~~~~~~~~~~~~~~~~~~~~~~~~~~~~~~~~~~~~~~~~~~~~~~~~~~~~~~~~~~~\nTitle: Horsemen[2009]\n~~~~~~~~~~~~~~~~~~~~~~~~~~~~~~~~~~~~~~~~~~~~~~~~~~~~~~~~~~~~~~~~~~~\n~~~~~~~~~~~~~~~~~~~~~~~~~~~~~~~~~~~~~~~~~~~~~~~~~~~~~~~~~~~~~~~~~~~\nRelease Notes\n\nGenre: Crime | Drama | Horror | Mystery | Thriller\n\nRated: R for grisly and disturbing content, some sexual images and \n       language.\n\nMovie Information: http://www.imdb.com/title/tt0892767/\n\nPlot: A recently widowed detective still grieving over his wife's \n      death discovers a shocking connection between himself and the \n      suspects in a serial killing spree linked to the Four Horsemen \n      of the Apocalypse.\n\nFormat                           : AVI\nFormat/Info                      : Audio Video Interleave\nFile size                        : 1.17 GiB\nDuration                         : 1h 30mn\nOverall bit rate                 : 1 858 Kbps\nMovie name                       : Horsemen[2009]DvDRip[Eng]-Uvall\nWriting application              : Lavf52.33.0\n\nVideo\nFormat                           : MPEG-4 Visual\nFormat profile                   : Simple@L3\nFormat settings, BVOP            : No\nFormat settings, QPel            : No\nFormat settings, GMC             : No warppoints\nFormat settings, Matrix          : Default (H.263)\nCodec ID                         : XVID\nCodec ID/Hint                    : XviD\nDuration                         : 1h 30mn\nBit rate                         : 1 399 Kbps\nWidth                            : 704 pixels\nHeight                           : 400 pixels\nDisplay aspect ratio             : 16:9\nFrame rate                       : 23.976 fps\nResolution                       : 24 bits\nColorimetry                      : 4:2:0\nScan type                        : Progressive\nBits/(Pixel*Frame)               : 0.207\nStream size                      : 903 MiB (75%)\nWriting library                  : XviD 1.2.1 (UTC 2008-12-04)\n\nAudio\nFormat                           : AC-3\nFormat/Info                      : Audio Coding 3\nCodec ID                         : 2000\nDuration                         : 1h 30mn\nBit rate mode                    : Constant\nBit rate                         : 448 Kbps\nChannel(s)                       : 6 channels\nChannel positions                : Front: L C R, Surround: L R, LFE\nSampling rate                    : 48.0 KHz\nStream size                      : 289 MiB (24%)\nAlignment                        : Aligned on interleaves\nInterleave, duration             : 32 ms (0.77 video frame)\nInterleave, preload duration     : 32 ms\n~~~~~~~~~~~~~~~~~~~~~~~~~~~~~~~~~~~~~~~~~~~~~~~~~~~~~~~~~~~~~~~~~~~\n~~~~~~~~~~~~~~~~~~~~~~~~~~~~~~~~~~~~~~~~~~~~~~~~~~~~~~~~~~~~~~~~~~~\nPosted By: Uvall\n~~~~~~~~~~~~~~~~~~~~~~~~~~~~~~~~~~~~~~~~~~~~~~~~~~~~~~~~~~~~~~~~~~~","torrent":{"xt":"urn:btih:e4b3d7fa5e36341213d00d6b2f443604248520a7","amp;dn":"Horsemen%5B2009%5DDvDRip%5BEng%5D-Uvall","amp;tr":["udp%3A%2F%2Ftracker.openbittorrent.com%3A80","udp%3A%2F%2Fopen.demonii.com%3A1337","udp%3A%2F%2Ftracker.coppersurfer.tk%3A6969","udp%3A%2F%2Fexodus.desync.com%3A6969"],"infoHash":"e4b3d7fa5e36341213d00d6b2f443604248520a7","infoHashBuffer":{"type":"Buffer","data":[228,179,215,250,94,54,52,18,19,208,13,107,47,68,54,4,36,133,32,167]},"announce":[],"urlList":[]}}